<svg width="30" height="30" viewBox="0 0 30 30" fill="none" xmlns="http://www.w3.org/2000/svg">
    <path d="M7.5 25C7.08696 25 6.69129 24.8332 6.3967 24.5386C6.1021 24.244 5.93533 23.8483 5.93533 23.4353V6.56467C5.93533 6.15163 6.1021 5.75596 6.3967 5.46137C6.69129 5.16677 7.08696 5 7.5 5H10.6087C11.0217 5 11.4174 5.16677 11.712 5.46137C12.0066 5.75596 12.1734 6.15163 12.1734 6.56467V23.4353C12.1734 23.8483 12.0066 24.244 11.712 24.5386C11.4174 24.8332 11.0217 25 10.6087 25H7.5ZM19.3913 25C18.9783 25 18.5826 24.8332 18.288 24.5386C17.9934 24.244 17.8266 23.8483 17.8266 23.4353V6.56467C17.8266 6.15163 17.9934 5.75596 18.288 5.46137C18.5826 5.16677 18.9783 5 19.3913 5H22.5C22.913 5 23.3087 5.16677 23.6033 5.46137C23.8979 5.75596 24.0647 6.15163 24.0647 6.56467V23.4353C24.0647 23.8483 23.8979 24.244 23.6033 24.5386C23.3087 24.8332 22.913 25 22.5 25H19.3913Z" fill="#222"/>
</svg>